<?xml version="1.0" encoding="UTF-8"?>
<svg xmlns="http://www.w3.org/2000/svg" version="1.1" xmlns:inkscape="http://www.inkscape.org/namespaces/inkscape" xmlns:sodipodi="http://sodipodi.sourceforge.net/DTD/sodipodi-0.dtd" xmlns:svg="http://www.w3.org/2000/svg" viewBox="0 0 239.5 123.3">
  <defs>
    <style>
      .cls-1 {
        fill: #e5bd4c;
      }
    </style>
  </defs>
  <!-- Generator: Adobe Illustrator 28.7.4, SVG Export Plug-In . SVG Version: 1.2.0 Build 166)  -->
  <g>
    <g id="Layer_1">
      <g id="svg1">
        <sodipodi:namedview id="namedview1" bordercolor="#eeeeee" borderopacity="1" inkscape:current-layer="layer1" inkscape:cx="164.06253" inkscape:cy="95.628668" inkscape:deskcolor="#505050" inkscape:document-units="mm" inkscape:pagecheckerboard="0" inkscape:pageopacity="0" inkscape:showpageshadow="0" inkscape:window-height="1334" inkscape:window-maximized="1" inkscape:window-width="2560" inkscape:window-x="-11" inkscape:window-y="-11" inkscape:zoom="3.9161897" pagecolor="#505050"/>
        <g id="layer1" inkscape:groupmode="layer" inkscape:label="Layer 1">
          <path id="path1" class="cls-1" d="M129.1,96.3s-1.8-1.7.3-3.3,9.8-4.8,21.1-5.1c11.3-.3,11.9,9.7,11.9,9.7,0,0,1,8.4,1.1,11.1s0,7.9,1.5,9.6,5.2,2.4,8.3,2.4c3.2,0,6.9-1.3,10.9-4s11.5-9.5,14.8-15.5c3.3-6,7-12.1,8.2-18.5,1.3-6.4,1.3-14.1,1.3-14.1,0,0,0-2.4,1.2-2.4s1.2,2.5,1.2,2.5c0,0,2,12.9,3.9,22.6,1.9,9.7,2.2,13,4.6,16.9s4.8,5.8,4.8,5.8c0,0,1,1,.3,1.8s-1.9-.3-1.9-.3c0,0-5-2.9-6.7-10.7-1.7-7.7-6.4-32-6.4-32,0,0-.6,11.5-3.1,17.3-2.5,5.8-6.1,12.3-10.3,17.4s-11.5,10.9-14.8,12.6-7.7,3.5-11.5,3.3c-3.8-.1-5.6-2.1-6.4-3.7s-.8-1.7-1.1-4.7-.9-12.8-1.5-16.5-2.8-8.1-10.1-8c-7.3.1-16.1,2-18.9,3.8s-2.9,2-2.9,2h0Z"/>
          <path id="path2" class="cls-1" d="M184.9,93.4s-1.2-2.4.8-3.4c2-1.1,20.5-6.4,28.4-7.8,8-1.5,14.2-2.1,17-1.9s8.8,1.9,8.4,2.6-2.4,0-2.4,0c0,0-3.5-.8-7.3-.6-3.9.2-12.6,1.4-18.2,2.8-5.7,1.3-26.6,8.4-26.6,8.4h0Z"/>
        </g>
      </g>
    </g>
  </g>
</svg>